<?xml version="1.0" encoding="UTF-8" ?>
<svg xmlns="http://www.w3.org/2000/svg" xmlns:xlink="http://www.w3.org/1999/xlink" width="1484pt" height="800pt" viewBox="0.00 0.00 1484.39 800.11">
<g id="graph0" class="graph" transform="scale(1 1) rotate(0) translate(4 796.1083)">
<title>NFA</title>
<polygon fill="#ffffff" stroke="transparent" points="-4,4 -4,-796.1083 1480.3869,-796.1083 1480.3869,4 -4,4"/>
<!-- N0 -->
<g id="node1" class="node">
<title>N0</title>
<ellipse fill="none" stroke="#000000" cx="707.6935" cy="-774.1083" rx="18" ry="18"/>
<text text-anchor="middle" x="707.6935" y="-769.9083" font-family="Times,serif" font-size="14.00" fill="#000000">0</text>
</g>
<!-- N1 -->
<g id="node2" class="node">
<title>N1</title>
<ellipse fill="none" stroke="#000000" cx="707.6935" cy="-685.3083" rx="18" ry="18"/>
<text text-anchor="middle" x="707.6935" y="-681.1083" font-family="Times,serif" font-size="14.00" fill="#000000">1</text>
</g>
<!-- N0&#45;&gt;N1 -->
<g id="edge1" class="edge">
<title>N0-&gt;N1</title>
<path fill="none" stroke="#000000" d="M707.6935,-755.7089C707.6935,-743.6032 707.6935,-727.516 707.6935,-713.7757"/>
<polygon fill="#000000" stroke="#000000" points="711.1935,-713.3803 707.6935,-703.3804 704.1935,-713.3804 711.1935,-713.3803"/>
<text text-anchor="middle" x="714.6935" y="-725.5083" font-family="Times,serif" font-size="14.00" fill="#000000">34</text>
</g>
<!-- N42 -->
<g id="node43" class="node">
<title>N42</title>
<ellipse fill="none" stroke="#000000" cx="707.6935" cy="-593.8149" rx="20.8887" ry="20.8887"/>
<text text-anchor="middle" x="707.6935" y="-589.6149" font-family="Times,serif" font-size="14.00" fill="#000000">42</text>
</g>
<!-- N1&#45;&gt;N42 -->
<g id="edge2" class="edge">
<title>N1-&gt;N42</title>
<path fill="none" stroke="#000000" d="M707.6935,-667.2322C707.6935,-655.1973 707.6935,-639.0697 707.6935,-624.9958"/>
<polygon fill="#000000" stroke="#000000" points="711.1936,-624.7354 707.6935,-614.7354 704.1936,-624.7355 711.1936,-624.7354"/>
<text text-anchor="middle" x="711.7738" y="-636.7083" font-family="Times,serif" font-size="14.00" fill="#000000">ε</text>
</g>
<!-- N2 -->
<g id="node3" class="node">
<title>N2</title>
<ellipse fill="none" stroke="#000000" cx="484.6935" cy="-499.628" rx="18" ry="18"/>
<text text-anchor="middle" x="484.6935" y="-495.428" font-family="Times,serif" font-size="14.00" fill="#000000">2</text>
</g>
<!-- N3 -->
<g id="node4" class="node">
<title>N3</title>
<ellipse fill="none" stroke="#000000" cx="456.6935" cy="-401.4411" rx="18" ry="18"/>
<text text-anchor="middle" x="456.6935" y="-397.2411" font-family="Times,serif" font-size="14.00" fill="#000000">3</text>
</g>
<!-- N2&#45;&gt;N3 -->
<g id="edge3" class="edge">
<title>N2-&gt;N3</title>
<path fill="none" stroke="#000000" d="M479.6876,-482.0741C475.467,-467.274 469.3552,-445.8418 464.4935,-428.7932"/>
<polygon fill="#000000" stroke="#000000" points="467.7642,-427.4997 461.656,-418.843 461.0326,-429.4194 467.7642,-427.4997"/>
<text text-anchor="middle" x="480.6935" y="-448.3345" font-family="Times,serif" font-size="14.00" fill="#000000">92</text>
</g>
<!-- N4 -->
<g id="node5" class="node">
<title>N4</title>
<ellipse fill="none" stroke="#000000" cx="323.6935" cy="-303.2542" rx="18" ry="18"/>
<text text-anchor="middle" x="323.6935" y="-299.0542" font-family="Times,serif" font-size="14.00" fill="#000000">4</text>
</g>
<!-- N3&#45;&gt;N4 -->
<g id="edge4" class="edge">
<title>N3-&gt;N4</title>
<path fill="none" stroke="#000000" d="M442.2069,-390.7464C419.2431,-373.7935 374.2792,-340.599 346.8187,-320.3264"/>
<polygon fill="#000000" stroke="#000000" points="348.6921,-317.3589 338.5681,-314.2354 344.5345,-322.9905 348.6921,-317.3589"/>
<text text-anchor="middle" x="402.7738" y="-346.1476" font-family="Times,serif" font-size="14.00" fill="#000000">ε</text>
</g>
<!-- N5 -->
<g id="node6" class="node">
<title>N5</title>
<ellipse fill="none" stroke="#000000" cx="152.6935" cy="-209.0673" rx="18" ry="18"/>
<text text-anchor="middle" x="152.6935" y="-204.8673" font-family="Times,serif" font-size="14.00" fill="#000000">5</text>
</g>
<!-- N4&#45;&gt;N5 -->
<g id="edge8" class="edge">
<title>N4-&gt;N5</title>
<path fill="none" stroke="#000000" d="M305.6372,-300.5104C280.8505,-296.0984 235.6348,-285.6897 202.8723,-264.5607 189.7375,-256.09 177.8643,-243.3221 168.9685,-232.1681"/>
<polygon fill="#000000" stroke="#000000" points="171.6234,-229.8777 162.7747,-224.0511 166.0585,-234.1242 171.6234,-229.8777"/>
<text text-anchor="middle" x="224.1041" y="-251.9607" font-family="Times,serif" font-size="14.00" fill="#000000">[0,127]</text>
</g>
<!-- N6 -->
<g id="node7" class="node">
<title>N6</title>
<ellipse fill="none" stroke="#000000" cx="479.6935" cy="-209.0673" rx="18" ry="18"/>
<text text-anchor="middle" x="479.6935" y="-204.8673" font-family="Times,serif" font-size="14.00" fill="#000000">6</text>
</g>
<!-- N4&#45;&gt;N6 -->
<g id="edge5" class="edge">
<title>N4-&gt;N6</title>
<path fill="none" stroke="#000000" d="M341.9916,-301.9518C368.4858,-299.1929 417.8363,-290.6705 449.6935,-264.5607 458.8085,-257.0901 465.5614,-246.0947 470.3273,-235.8578"/>
<polygon fill="#000000" stroke="#000000" points="473.6481,-236.99 474.3002,-226.4152 467.1959,-234.2752 473.6481,-236.99"/>
<text text-anchor="middle" x="491.1041" y="-251.9607" font-family="Times,serif" font-size="14.00" fill="#000000">[194,223]</text>
</g>
<!-- N8 -->
<g id="node9" class="node">
<title>N8</title>
<ellipse fill="none" stroke="#000000" cx="266.6935" cy="-209.0673" rx="18" ry="18"/>
<text text-anchor="middle" x="266.6935" y="-204.8673" font-family="Times,serif" font-size="14.00" fill="#000000">8</text>
</g>
<!-- N4&#45;&gt;N8 -->
<g id="edge7" class="edge">
<title>N4-&gt;N8</title>
<path fill="none" stroke="#000000" d="M313.5378,-287.9279C308.9236,-280.8655 303.4462,-272.3414 298.6935,-264.5607 292.6307,-254.6355 286.1812,-243.5586 280.6727,-233.9273"/>
<polygon fill="#000000" stroke="#000000" points="283.708,-232.1845 275.723,-225.221 277.6226,-235.6441 283.708,-232.1845"/>
<text text-anchor="middle" x="309.1935" y="-251.9607" font-family="Times,serif" font-size="14.00" fill="#000000">224</text>
</g>
<!-- N11 -->
<g id="node12" class="node">
<title>N11</title>
<ellipse fill="none" stroke="#000000" cx="323.6935" cy="-209.0673" rx="20.8887" ry="20.8887"/>
<text text-anchor="middle" x="323.6935" y="-204.8673" font-family="Times,serif" font-size="14.00" fill="#000000">11</text>
</g>
<!-- N4&#45;&gt;N11 -->
<g id="edge6" class="edge">
<title>N4-&gt;N11</title>
<path fill="none" stroke="#000000" d="M323.6935,-285.094C323.6935,-272.3614 323.6935,-255.0217 323.6935,-240.1171"/>
<polygon fill="#000000" stroke="#000000" points="327.1935,-239.7952 323.6935,-229.7953 320.1935,-239.7953 327.1935,-239.7952"/>
<text text-anchor="middle" x="351.1041" y="-251.9607" font-family="Times,serif" font-size="14.00" fill="#000000">[225,236]</text>
</g>
<!-- N14 -->
<g id="node15" class="node">
<title>N14</title>
<ellipse fill="none" stroke="#000000" cx="209.6935" cy="-209.0673" rx="20.8887" ry="20.8887"/>
<text text-anchor="middle" x="209.6935" y="-204.8673" font-family="Times,serif" font-size="14.00" fill="#000000">14</text>
</g>
<!-- N4&#45;&gt;N14 -->
<g id="edge9" class="edge">
<title>N4-&gt;N14</title>
<path fill="none" stroke="#000000" d="M308.0454,-294.2299C295.7841,-286.8715 278.5414,-275.8777 264.6935,-264.5607 252.8084,-254.8479 240.6843,-242.8793 230.8546,-232.5468"/>
<polygon fill="#000000" stroke="#000000" points="233.2126,-229.944 223.8269,-225.0288 228.0989,-234.7242 233.2126,-229.944"/>
<text text-anchor="middle" x="275.1935" y="-251.9607" font-family="Times,serif" font-size="14.00" fill="#000000">237</text>
</g>
<!-- N17 -->
<g id="node18" class="node">
<title>N17</title>
<ellipse fill="none" stroke="#000000" cx="401.6935" cy="-209.0673" rx="20.8887" ry="20.8887"/>
<text text-anchor="middle" x="401.6935" y="-204.8673" font-family="Times,serif" font-size="14.00" fill="#000000">17</text>
</g>
<!-- N4&#45;&gt;N17 -->
<g id="edge10" class="edge">
<title>N4-&gt;N17</title>
<path fill="none" stroke="#000000" d="M340.1331,-295.3033C352.4794,-288.6046 369.0286,-277.9723 379.6935,-264.5607 385.6454,-257.0757 390.1649,-247.7769 393.5113,-238.9443"/>
<polygon fill="#000000" stroke="#000000" points="396.8881,-239.886 396.8049,-229.2915 390.2631,-237.6255 396.8881,-239.886"/>
<text text-anchor="middle" x="418.1041" y="-251.9607" font-family="Times,serif" font-size="14.00" fill="#000000">[238,239]</text>
</g>
<!-- N5&#45;&gt;N42 -->
<g id="edge11" class="edge">
<title>N5-&gt;N42</title>
<path fill="none" stroke="#000000" d="M159.34,-225.9913C164.2896,-237.4751 171.7254,-252.672 180.6935,-264.5607 315.878,-443.7717 388.225,-504.9948 509.6935,-555.1214 565.8946,-578.3141 636.9147,-587.8446 676.8176,-591.5774"/>
<polygon fill="#000000" stroke="#000000" points="676.7063,-595.0809 686.9728,-592.4639 677.3152,-588.1074 676.7063,-595.0809"/>
<text text-anchor="middle" x="318.7738" y="-397.2411" font-family="Times,serif" font-size="14.00" fill="#000000">ε</text>
</g>
<!-- N7 -->
<g id="node8" class="node">
<title>N7</title>
<ellipse fill="none" stroke="#000000" cx="510.6935" cy="-114.8804" rx="18" ry="18"/>
<text text-anchor="middle" x="510.6935" y="-110.6804" font-family="Times,serif" font-size="14.00" fill="#000000">7</text>
</g>
<!-- N6&#45;&gt;N7 -->
<g id="edge12" class="edge">
<title>N6-&gt;N7</title>
<path fill="none" stroke="#000000" d="M477.2785,-191.0646C476.4618,-179.9494 476.6431,-165.5703 480.8723,-153.5738 483.1299,-147.1698 486.8921,-140.9869 490.9971,-135.5131"/>
<polygon fill="#000000" stroke="#000000" points="493.8923,-137.504 497.5629,-127.5654 488.4956,-133.0458 493.8923,-137.504"/>
<text text-anchor="middle" x="509.1041" y="-157.7738" font-family="Times,serif" font-size="14.00" fill="#000000">[128,191]</text>
</g>
<!-- N7&#45;&gt;N42 -->
<g id="edge13" class="edge">
<title>N7-&gt;N42</title>
<path fill="none" stroke="#000000" d="M521.9053,-129.1912C526.8535,-136.1833 532.3043,-144.9376 535.6935,-153.5738 602.2339,-323.1336 501.3269,-414.9893 617.6935,-555.1214 632.5903,-573.0606 657.3445,-582.883 677.1252,-588.1372"/>
<polygon fill="#000000" stroke="#000000" points="676.3972,-591.5618 686.9374,-590.4873 678.0276,-584.7543 676.3972,-591.5618"/>
<text text-anchor="middle" x="563.7738" y="-346.1476" font-family="Times,serif" font-size="14.00" fill="#000000">ε</text>
</g>
<!-- N9 -->
<g id="node10" class="node">
<title>N9</title>
<ellipse fill="none" stroke="#000000" cx="198.6935" cy="-114.8804" rx="18" ry="18"/>
<text text-anchor="middle" x="198.6935" y="-110.6804" font-family="Times,serif" font-size="14.00" fill="#000000">9</text>
</g>
<!-- N8&#45;&gt;N9 -->
<g id="edge14" class="edge">
<title>N8-&gt;N9</title>
<path fill="none" stroke="#000000" d="M256.0685,-194.3506C245.1898,-179.2826 228.1232,-155.6436 215.4282,-138.0596"/>
<polygon fill="#000000" stroke="#000000" points="217.9352,-135.5527 209.2438,-129.4937 212.2597,-139.6503 217.9352,-135.5527"/>
<text text-anchor="middle" x="265.1041" y="-157.7738" font-family="Times,serif" font-size="14.00" fill="#000000">[160,191]</text>
</g>
<!-- N10 -->
<g id="node11" class="node">
<title>N10</title>
<ellipse fill="none" stroke="#000000" cx="137.6935" cy="-20.6935" rx="20.8887" ry="20.8887"/>
<text text-anchor="middle" x="137.6935" y="-16.4935" font-family="Times,serif" font-size="14.00" fill="#000000">10</text>
</g>
<!-- N9&#45;&gt;N10 -->
<g id="edge15" class="edge">
<title>N9-&gt;N10</title>
<path fill="none" stroke="#000000" d="M188.8927,-99.7476C179.6581,-85.4888 165.6299,-63.8286 154.5912,-46.7844"/>
<polygon fill="#000000" stroke="#000000" points="157.5062,-44.8466 149.1324,-38.3557 151.6307,-48.6518 157.5062,-44.8466"/>
<text text-anchor="middle" x="200.1041" y="-63.5869" font-family="Times,serif" font-size="14.00" fill="#000000">[128,191]</text>
</g>
<!-- N10&#45;&gt;N42 -->
<g id="edge16" class="edge">
<title>N10-&gt;N42</title>
<path fill="none" stroke="#000000" d="M127.7142,-39.224C118.6519,-57.8046 106.6935,-87.5088 106.6935,-114.8804 106.6935,-499.628 106.6935,-499.628 106.6935,-499.628 106.6935,-557.936 553.9227,-585.7352 676.7886,-592.2722"/>
<polygon fill="#000000" stroke="#000000" points="676.8366,-595.7794 687.0057,-592.8062 677.202,-588.7889 676.8366,-595.7794"/>
<text text-anchor="middle" x="110.7738" y="-299.0542" font-family="Times,serif" font-size="14.00" fill="#000000">ε</text>
</g>
<!-- N12 -->
<g id="node13" class="node">
<title>N12</title>
<ellipse fill="none" stroke="#000000" cx="332.6935" cy="-114.8804" rx="20.8887" ry="20.8887"/>
<text text-anchor="middle" x="332.6935" y="-110.6804" font-family="Times,serif" font-size="14.00" fill="#000000">12</text>
</g>
<!-- N11&#45;&gt;N12 -->
<g id="edge17" class="edge">
<title>N11-&gt;N12</title>
<path fill="none" stroke="#000000" d="M323.26,-188.1915C323.266,-177.7639 323.6095,-164.9715 324.8723,-153.5738 325.1732,-150.8576 325.5701,-148.0488 326.0259,-145.2421"/>
<polygon fill="#000000" stroke="#000000" points="329.4958,-145.7249 327.8675,-135.256 322.6119,-144.4554 329.4958,-145.7249"/>
<text text-anchor="middle" x="353.1041" y="-157.7738" font-family="Times,serif" font-size="14.00" fill="#000000">[128,191]</text>
</g>
<!-- N13 -->
<g id="node14" class="node">
<title>N13</title>
<ellipse fill="none" stroke="#000000" cx="490.6935" cy="-20.6935" rx="20.8887" ry="20.8887"/>
<text text-anchor="middle" x="490.6935" y="-16.4935" font-family="Times,serif" font-size="14.00" fill="#000000">13</text>
</g>
<!-- N12&#45;&gt;N13 -->
<g id="edge18" class="edge">
<title>N12-&gt;N13</title>
<path fill="none" stroke="#000000" d="M350.5109,-104.259C378.1297,-87.7949 431.4549,-56.0067 463.7836,-36.7349"/>
<polygon fill="#000000" stroke="#000000" points="465.9012,-39.5473 472.6987,-31.4205 462.3169,-33.5346 465.9012,-39.5473"/>
<text text-anchor="middle" x="449.1041" y="-63.5869" font-family="Times,serif" font-size="14.00" fill="#000000">[128,191]</text>
</g>
<!-- N13&#45;&gt;N42 -->
<g id="edge19" class="edge">
<title>N13-&gt;N42</title>
<path fill="none" stroke="#000000" d="M509.1023,-30.694C529.5007,-41.801 559.6837,-58.3231 560.6935,-59.3869 579.5759,-79.2805 587.6935,-87.4523 587.6935,-114.8804 587.6935,-256.1607 587.6935,-256.1607 587.6935,-256.1607 587.6935,-389.1778 522.92,-447.9381 601.6935,-555.1214 610.8896,-567.6341 649.3456,-579.4879 677.2958,-586.7005"/>
<polygon fill="#000000" stroke="#000000" points="676.4937,-590.1076 687.0443,-589.1403 678.1933,-583.3171 676.4937,-590.1076"/>
<text text-anchor="middle" x="591.7738" y="-299.0542" font-family="Times,serif" font-size="14.00" fill="#000000">ε</text>
</g>
<!-- N15 -->
<g id="node16" class="node">
<title>N15</title>
<ellipse fill="none" stroke="#000000" cx="55.6935" cy="-114.8804" rx="20.8887" ry="20.8887"/>
<text text-anchor="middle" x="55.6935" y="-110.6804" font-family="Times,serif" font-size="14.00" fill="#000000">15</text>
</g>
<!-- N14&#45;&gt;N15 -->
<g id="edge20" class="edge">
<title>N14-&gt;N15</title>
<path fill="none" stroke="#000000" d="M192.6963,-197.043C188.4849,-194.1471 183.9565,-191.1029 179.6935,-188.3738 146.8443,-167.3449 108.031,-144.6802 82.692,-130.1662"/>
<polygon fill="#000000" stroke="#000000" points="84.4221,-127.1237 74.0022,-125.2059 80.9518,-133.203 84.4221,-127.1237"/>
<text text-anchor="middle" x="177.1041" y="-157.7738" font-family="Times,serif" font-size="14.00" fill="#000000">[128,159]</text>
</g>
<!-- N16 -->
<g id="node17" class="node">
<title>N16</title>
<ellipse fill="none" stroke="#000000" cx="20.6935" cy="-20.6935" rx="20.8887" ry="20.8887"/>
<text text-anchor="middle" x="20.6935" y="-16.4935" font-family="Times,serif" font-size="14.00" fill="#000000">16</text>
</g>
<!-- N15&#45;&gt;N16 -->
<g id="edge21" class="edge">
<title>N15-&gt;N16</title>
<path fill="none" stroke="#000000" d="M46.488,-96.1993C43.5538,-89.9157 40.4126,-82.8169 37.8723,-76.1869 34.7168,-67.9516 31.7126,-58.8674 29.1245,-50.4752"/>
<polygon fill="#000000" stroke="#000000" points="32.4144,-49.2604 26.1919,-40.6853 25.7088,-51.2691 32.4144,-49.2604"/>
<text text-anchor="middle" x="66.1041" y="-63.5869" font-family="Times,serif" font-size="14.00" fill="#000000">[128,191]</text>
</g>
<!-- N16&#45;&gt;N42 -->
<g id="edge22" class="edge">
<title>N16-&gt;N42</title>
<path fill="none" stroke="#000000" d="M14.938,-40.7151C10.0062,-59.6543 3.6935,-88.9592 3.6935,-114.8804 3.6935,-499.628 3.6935,-499.628 3.6935,-499.628 3.6935,-568.5874 541.2129,-588.9474 676.8856,-592.9881"/>
<polygon fill="#000000" stroke="#000000" points="676.9082,-596.4901 687.0053,-593.2811 677.1109,-589.4931 676.9082,-596.4901"/>
<text text-anchor="middle" x="7.7738" y="-299.0542" font-family="Times,serif" font-size="14.00" fill="#000000">ε</text>
</g>
<!-- N18 -->
<g id="node19" class="node">
<title>N18</title>
<ellipse fill="none" stroke="#000000" cx="427.6935" cy="-114.8804" rx="20.8887" ry="20.8887"/>
<text text-anchor="middle" x="427.6935" y="-110.6804" font-family="Times,serif" font-size="14.00" fill="#000000">18</text>
</g>
<!-- N17&#45;&gt;N18 -->
<g id="edge23" class="edge">
<title>N17-&gt;N18</title>
<path fill="none" stroke="#000000" d="M399.4955,-188.3519C399.024,-177.7349 399.4733,-164.7275 402.8723,-153.5738 404.3089,-148.8596 406.4966,-144.1683 408.9895,-139.7632"/>
<polygon fill="#000000" stroke="#000000" points="412.0123,-141.5315 414.3923,-131.2074 406.0936,-137.794 412.0123,-141.5315"/>
<text text-anchor="middle" x="431.1041" y="-157.7738" font-family="Times,serif" font-size="14.00" fill="#000000">[128,191]</text>
</g>
<!-- N19 -->
<g id="node20" class="node">
<title>N19</title>
<ellipse fill="none" stroke="#000000" cx="558.6935" cy="-20.6935" rx="20.8887" ry="20.8887"/>
<text text-anchor="middle" x="558.6935" y="-16.4935" font-family="Times,serif" font-size="14.00" fill="#000000">19</text>
</g>
<!-- N18&#45;&gt;N19 -->
<g id="edge24" class="edge">
<title>N18-&gt;N19</title>
<path fill="none" stroke="#000000" d="M444.5512,-102.7599C467.0261,-86.6008 507.0052,-57.8565 533.1816,-39.0361"/>
<polygon fill="#000000" stroke="#000000" points="535.4083,-41.7459 541.4844,-33.0665 531.3219,-36.0624 535.4083,-41.7459"/>
<text text-anchor="middle" x="529.1041" y="-63.5869" font-family="Times,serif" font-size="14.00" fill="#000000">[128,191]</text>
</g>
<!-- N19&#45;&gt;N42 -->
<g id="edge25" class="edge">
<title>N19-&gt;N42</title>
<path fill="none" stroke="#000000" d="M575.9934,-32.1408C597.5805,-47.9561 631.6935,-78.6759 631.6935,-114.8804 631.6935,-499.628 631.6935,-499.628 631.6935,-499.628 631.6935,-532.2744 659.6895,-559.9879 681.698,-576.7304"/>
<polygon fill="#000000" stroke="#000000" points="679.9174,-579.7628 690.0665,-582.8038 684.029,-574.0975 679.9174,-579.7628"/>
<text text-anchor="middle" x="635.7738" y="-299.0542" font-family="Times,serif" font-size="14.00" fill="#000000">ε</text>
</g>
<!-- N20 -->
<g id="node21" class="node">
<title>N20</title>
<ellipse fill="none" stroke="#000000" cx="794.6935" cy="-303.2542" rx="20.8887" ry="20.8887"/>
<text text-anchor="middle" x="794.6935" y="-299.0542" font-family="Times,serif" font-size="14.00" fill="#000000">20</text>
</g>
<!-- N21 -->
<g id="node22" class="node">
<title>N21</title>
<ellipse fill="none" stroke="#000000" cx="773.6935" cy="-209.0673" rx="20.8887" ry="20.8887"/>
<text text-anchor="middle" x="773.6935" y="-204.8673" font-family="Times,serif" font-size="14.00" fill="#000000">21</text>
</g>
<!-- N20&#45;&gt;N21 -->
<g id="edge26" class="edge">
<title>N20-&gt;N21</title>
<path fill="none" stroke="#000000" d="M790.1368,-282.817C787.3023,-270.1043 783.6063,-253.5274 780.4365,-239.3106"/>
<polygon fill="#000000" stroke="#000000" points="783.8336,-238.4632 778.2412,-229.4645 777.0014,-239.9866 783.8336,-238.4632"/>
<text text-anchor="middle" x="802.6041" y="-251.9607" font-family="Times,serif" font-size="14.00" fill="#000000">[0,33]</text>
</g>
<!-- N21&#45;&gt;N42 -->
<g id="edge27" class="edge">
<title>N21-&gt;N42</title>
<path fill="none" stroke="#000000" d="M771.1301,-229.7689C763.0305,-294.4863 737.5855,-492.4012 721.6935,-555.1214 720.8863,-558.3069 719.9172,-561.5969 718.8704,-564.8511"/>
<polygon fill="#000000" stroke="#000000" points="715.5407,-563.7706 715.5812,-574.3654 722.1566,-566.0578 715.5407,-563.7706"/>
<text text-anchor="middle" x="755.7738" y="-397.2411" font-family="Times,serif" font-size="14.00" fill="#000000">ε</text>
</g>
<!-- N22 -->
<g id="node23" class="node">
<title>N22</title>
<ellipse fill="none" stroke="#000000" cx="892.6935" cy="-303.2542" rx="20.8887" ry="20.8887"/>
<text text-anchor="middle" x="892.6935" y="-299.0542" font-family="Times,serif" font-size="14.00" fill="#000000">22</text>
</g>
<!-- N23 -->
<g id="node24" class="node">
<title>N23</title>
<ellipse fill="none" stroke="#000000" cx="848.6935" cy="-209.0673" rx="20.8887" ry="20.8887"/>
<text text-anchor="middle" x="848.6935" y="-204.8673" font-family="Times,serif" font-size="14.00" fill="#000000">23</text>
</g>
<!-- N22&#45;&gt;N23 -->
<g id="edge28" class="edge">
<title>N22-&gt;N23</title>
<path fill="none" stroke="#000000" d="M883.7894,-284.194C877.5273,-270.7893 869.0395,-252.6202 861.9796,-237.5078"/>
<polygon fill="#000000" stroke="#000000" points="864.9879,-235.6778 857.5843,-228.099 858.6458,-238.6406 864.9879,-235.6778"/>
<text text-anchor="middle" x="894.1041" y="-251.9607" font-family="Times,serif" font-size="14.00" fill="#000000">[35,91]</text>
</g>
<!-- N23&#45;&gt;N42 -->
<g id="edge29" class="edge">
<title>N23-&gt;N42</title>
<path fill="none" stroke="#000000" d="M845.3815,-229.6377C841.4243,-252.8078 834.1363,-291.4699 824.6935,-323.9476 794.0445,-429.3614 791.2591,-459.2979 737.6935,-555.1214 734.8938,-560.1297 731.4849,-565.1869 727.9826,-569.9192"/>
<polygon fill="#000000" stroke="#000000" points="725.069,-567.9641 721.689,-578.0054 730.5931,-572.2636 725.069,-567.9641"/>
<text text-anchor="middle" x="813.7738" y="-397.2411" font-family="Times,serif" font-size="14.00" fill="#000000">ε</text>
</g>
<!-- N24 -->
<g id="node25" class="node">
<title>N24</title>
<ellipse fill="none" stroke="#000000" cx="874.6935" cy="-401.4411" rx="20.8887" ry="20.8887"/>
<text text-anchor="middle" x="874.6935" y="-397.2411" font-family="Times,serif" font-size="14.00" fill="#000000">24</text>
</g>
<!-- N24&#45;&gt;N20 -->
<g id="edge30" class="edge">
<title>N24-&gt;N20</title>
<path fill="none" stroke="#000000" d="M861.4831,-385.2275C848.629,-369.4512 828.944,-345.2912 814.2703,-327.2815"/>
<polygon fill="#000000" stroke="#000000" points="816.9534,-325.0336 807.9235,-319.4918 811.5266,-329.4552 816.9534,-325.0336"/>
<text text-anchor="middle" x="843.7738" y="-346.1476" font-family="Times,serif" font-size="14.00" fill="#000000">ε</text>
</g>
<!-- N24&#45;&gt;N22 -->
<g id="edge31" class="edge">
<title>N24-&gt;N22</title>
<path fill="none" stroke="#000000" d="M877.3322,-380.718C878.9027,-369.2502 881.068,-354.7654 883.5329,-341.9476 884.0527,-339.2445 884.6328,-336.4446 885.2419,-333.6438"/>
<polygon fill="#000000" stroke="#000000" points="888.706,-334.195 887.5182,-323.6669 881.8814,-332.6378 888.706,-334.195"/>
<text text-anchor="middle" x="887.7738" y="-346.1476" font-family="Times,serif" font-size="14.00" fill="#000000">ε</text>
</g>
<!-- N25 -->
<g id="node26" class="node">
<title>N25</title>
<ellipse fill="none" stroke="#000000" cx="1034.6935" cy="-401.4411" rx="20.8887" ry="20.8887"/>
<text text-anchor="middle" x="1034.6935" y="-397.2411" font-family="Times,serif" font-size="14.00" fill="#000000">25</text>
</g>
<!-- N26 -->
<g id="node27" class="node">
<title>N26</title>
<ellipse fill="none" stroke="#000000" cx="1273.6935" cy="-303.2542" rx="20.8887" ry="20.8887"/>
<text text-anchor="middle" x="1273.6935" y="-299.0542" font-family="Times,serif" font-size="14.00" fill="#000000">26</text>
</g>
<!-- N25&#45;&gt;N26 -->
<g id="edge34" class="edge">
<title>N25-&gt;N26</title>
<path fill="none" stroke="#000000" d="M1055.3453,-399.8399C1089.7799,-396.4603 1160.3097,-386.4725 1212.6935,-358.7476 1221.2882,-354.1987 1237.9378,-338.8517 1251.6737,-325.4473"/>
<polygon fill="#000000" stroke="#000000" points="1254.2761,-327.7965 1258.9354,-318.2811 1249.3592,-322.8141 1254.2761,-327.7965"/>
<text text-anchor="middle" x="1257.6041" y="-346.1476" font-family="Times,serif" font-size="14.00" fill="#000000">[93,127]</text>
</g>
<!-- N27 -->
<g id="node28" class="node">
<title>N27</title>
<ellipse fill="none" stroke="#000000" cx="1214.6935" cy="-303.2542" rx="20.8887" ry="20.8887"/>
<text text-anchor="middle" x="1214.6935" y="-299.0542" font-family="Times,serif" font-size="14.00" fill="#000000">27</text>
</g>
<!-- N25&#45;&gt;N27 -->
<g id="edge35" class="edge">
<title>N25-&gt;N27</title>
<path fill="none" stroke="#000000" d="M1054.4772,-394.4957C1075.1071,-386.9123 1108.0842,-373.8189 1134.6935,-358.7476 1145.7641,-352.4773 1147.3766,-349.1391 1157.8723,-341.9476 1170.0212,-333.6233 1173.5137,-332.2269 1185.6935,-323.9476 1186.9403,-323.1001 1188.2126,-322.2263 1189.4942,-321.339"/>
<polygon fill="#000000" stroke="#000000" points="1191.7462,-324.0343 1197.9163,-315.4214 1187.7219,-318.3068 1191.7462,-324.0343"/>
<text text-anchor="middle" x="1186.1041" y="-346.1476" font-family="Times,serif" font-size="14.00" fill="#000000">[194,223]</text>
</g>
<!-- N29 -->
<g id="node30" class="node">
<title>N29</title>
<ellipse fill="none" stroke="#000000" cx="951.6935" cy="-303.2542" rx="20.8887" ry="20.8887"/>
<text text-anchor="middle" x="951.6935" y="-299.0542" font-family="Times,serif" font-size="14.00" fill="#000000">29</text>
</g>
<!-- N25&#45;&gt;N29 -->
<g id="edge36" class="edge">
<title>N25-&gt;N29</title>
<path fill="none" stroke="#000000" d="M1014.058,-399.6148C989.4388,-396.2053 949.2796,-386.4688 930.6935,-358.7476 924.4568,-349.4457 927.3048,-338.036 932.6461,-327.9864"/>
<polygon fill="#000000" stroke="#000000" points="935.7738,-329.5836 938.0632,-319.239 929.8225,-325.898 935.7738,-329.5836"/>
<text text-anchor="middle" x="941.1935" y="-346.1476" font-family="Times,serif" font-size="14.00" fill="#000000">224</text>
</g>
<!-- N32 -->
<g id="node33" class="node">
<title>N32</title>
<ellipse fill="none" stroke="#000000" cx="1085.6935" cy="-303.2542" rx="20.8887" ry="20.8887"/>
<text text-anchor="middle" x="1085.6935" y="-299.0542" font-family="Times,serif" font-size="14.00" fill="#000000">32</text>
</g>
<!-- N25&#45;&gt;N32 -->
<g id="edge37" class="edge">
<title>N25-&gt;N32</title>
<path fill="none" stroke="#000000" d="M1030.8625,-380.837C1029.642,-368.8721 1029.8947,-353.8585 1035.8723,-341.9476 1040.8091,-332.1104 1049.5481,-324.0337 1058.3431,-317.8511"/>
<polygon fill="#000000" stroke="#000000" points="1060.478,-320.6405 1067.018,-312.305 1056.7074,-314.7427 1060.478,-320.6405"/>
<text text-anchor="middle" x="1064.1041" y="-346.1476" font-family="Times,serif" font-size="14.00" fill="#000000">[225,236]</text>
</g>
<!-- N35 -->
<g id="node36" class="node">
<title>N35</title>
<ellipse fill="none" stroke="#000000" cx="1155.6935" cy="-303.2542" rx="20.8887" ry="20.8887"/>
<text text-anchor="middle" x="1155.6935" y="-299.0542" font-family="Times,serif" font-size="14.00" fill="#000000">35</text>
</g>
<!-- N25&#45;&gt;N35 -->
<g id="edge32" class="edge">
<title>N25-&gt;N35</title>
<path fill="none" stroke="#000000" d="M1051.543,-388.9762C1062.7589,-380.5862 1077.7549,-369.1896 1090.6935,-358.7476 1104.8066,-347.3577 1120.2603,-334.1939 1132.5573,-323.5465"/>
<polygon fill="#000000" stroke="#000000" points="1134.8864,-326.1594 1140.1365,-316.9569 1130.2935,-320.8768 1134.8864,-326.1594"/>
<text text-anchor="middle" x="1121.1935" y="-346.1476" font-family="Times,serif" font-size="14.00" fill="#000000">237</text>
</g>
<!-- N38 -->
<g id="node39" class="node">
<title>N38</title>
<ellipse fill="none" stroke="#000000" cx="1014.6935" cy="-303.2542" rx="20.8887" ry="20.8887"/>
<text text-anchor="middle" x="1014.6935" y="-299.0542" font-family="Times,serif" font-size="14.00" fill="#000000">38</text>
</g>
<!-- N25&#45;&gt;N38 -->
<g id="edge33" class="edge">
<title>N25-&gt;N38</title>
<path fill="none" stroke="#000000" d="M1014.5629,-396.4883C996.1607,-390.7747 970.0192,-379.3951 957.8723,-358.7476 954.0862,-352.312 954.3815,-348.548 957.8723,-341.9476 958.7964,-340.2002 973.9856,-329.8962 988.4257,-320.3611"/>
<polygon fill="#000000" stroke="#000000" points="990.7492,-323.0224 997.1857,-314.6068 986.906,-317.1718 990.7492,-323.0224"/>
<text text-anchor="middle" x="986.1041" y="-346.1476" font-family="Times,serif" font-size="14.00" fill="#000000">[238,239]</text>
</g>
<!-- N26&#45;&gt;N42 -->
<g id="edge38" class="edge">
<title>N26-&gt;N42</title>
<path fill="none" stroke="#000000" d="M1283.2519,-321.7752C1287.7256,-333.223 1290.6984,-347.7726 1283.6935,-358.7476 1172.1783,-533.4636 1056.0183,-485.7708 860.6935,-555.1214 819.0543,-569.9055 769.1592,-581.4183 737.9345,-587.9143"/>
<polygon fill="#000000" stroke="#000000" points="737.1975,-584.4925 728.0999,-589.9225 738.598,-591.351 737.1975,-584.4925"/>
<text text-anchor="middle" x="1211.7738" y="-448.3345" font-family="Times,serif" font-size="14.00" fill="#000000">ε</text>
</g>
<!-- N28 -->
<g id="node29" class="node">
<title>N28</title>
<ellipse fill="none" stroke="#000000" cx="1281.6935" cy="-209.0673" rx="20.8887" ry="20.8887"/>
<text text-anchor="middle" x="1281.6935" y="-204.8673" font-family="Times,serif" font-size="14.00" fill="#000000">28</text>
</g>
<!-- N27&#45;&gt;N28 -->
<g id="edge39" class="edge">
<title>N27-&gt;N28</title>
<path fill="none" stroke="#000000" d="M1226.6586,-286.2261C1234.3975,-275.2324 1244.7021,-260.6312 1253.8723,-247.7607 1256.9734,-243.4081 1260.2809,-238.7886 1263.493,-234.314"/>
<polygon fill="#000000" stroke="#000000" points="1266.4776,-236.1584 1269.4735,-225.996 1260.7941,-232.0721 1266.4776,-236.1584"/>
<text text-anchor="middle" x="1282.1041" y="-251.9607" font-family="Times,serif" font-size="14.00" fill="#000000">[128,191]</text>
</g>
<!-- N28&#45;&gt;N42 -->
<g id="edge40" class="edge">
<title>N28-&gt;N42</title>
<path fill="none" stroke="#000000" d="M1294.9263,-225.217C1299.8394,-231.8702 1305.0882,-239.8617 1308.6935,-247.7607 1319.2552,-270.9009 1322.6935,-277.8176 1322.6935,-303.2542 1322.6935,-499.628 1322.6935,-499.628 1322.6935,-499.628 1322.6935,-559.3877 863.1165,-586.2124 738.5283,-592.3864"/>
<polygon fill="#000000" stroke="#000000" points="738.3261,-588.892 728.508,-592.8739 738.6663,-595.8838 738.3261,-588.892"/>
<text text-anchor="middle" x="1326.7738" y="-397.2411" font-family="Times,serif" font-size="14.00" fill="#000000">ε</text>
</g>
<!-- N30 -->
<g id="node31" class="node">
<title>N30</title>
<ellipse fill="none" stroke="#000000" cx="923.6935" cy="-209.0673" rx="20.8887" ry="20.8887"/>
<text text-anchor="middle" x="923.6935" y="-204.8673" font-family="Times,serif" font-size="14.00" fill="#000000">30</text>
</g>
<!-- N29&#45;&gt;N30 -->
<g id="edge41" class="edge">
<title>N29-&gt;N30</title>
<path fill="none" stroke="#000000" d="M945.7554,-283.2795C941.9317,-270.4176 936.891,-253.4616 932.5932,-239.0043"/>
<polygon fill="#000000" stroke="#000000" points="935.8275,-237.6011 929.623,-229.0131 929.1177,-239.5959 935.8275,-237.6011"/>
<text text-anchor="middle" x="967.1041" y="-251.9607" font-family="Times,serif" font-size="14.00" fill="#000000">[160,191]</text>
</g>
<!-- N31 -->
<g id="node32" class="node">
<title>N31</title>
<ellipse fill="none" stroke="#000000" cx="730.6935" cy="-114.8804" rx="20.8887" ry="20.8887"/>
<text text-anchor="middle" x="730.6935" y="-110.6804" font-family="Times,serif" font-size="14.00" fill="#000000">31</text>
</g>
<!-- N30&#45;&gt;N31 -->
<g id="edge42" class="edge">
<title>N30-&gt;N31</title>
<path fill="none" stroke="#000000" d="M904.8364,-199.8647C870.6622,-183.1872 798.3508,-147.8981 758.499,-128.4499"/>
<polygon fill="#000000" stroke="#000000" points="759.8649,-125.222 749.3429,-123.9816 756.7948,-131.5128 759.8649,-125.222"/>
<text text-anchor="middle" x="867.1041" y="-157.7738" font-family="Times,serif" font-size="14.00" fill="#000000">[128,191]</text>
</g>
<!-- N31&#45;&gt;N42 -->
<g id="edge43" class="edge">
<title>N31-&gt;N42</title>
<path fill="none" stroke="#000000" d="M714.6664,-128.414C696.5932,-145.281 669.6935,-175.9483 669.6935,-209.0673 669.6935,-499.628 669.6935,-499.628 669.6935,-499.628 669.6935,-523.9527 680.7283,-549.4122 690.9051,-567.7199"/>
<polygon fill="#000000" stroke="#000000" points="688.0227,-569.7248 696.0857,-576.5978 694.0686,-566.1967 688.0227,-569.7248"/>
<text text-anchor="middle" x="673.7738" y="-346.1476" font-family="Times,serif" font-size="14.00" fill="#000000">ε</text>
</g>
<!-- N33 -->
<g id="node34" class="node">
<title>N33</title>
<ellipse fill="none" stroke="#000000" cx="1130.6935" cy="-209.0673" rx="20.8887" ry="20.8887"/>
<text text-anchor="middle" x="1130.6935" y="-204.8673" font-family="Times,serif" font-size="14.00" fill="#000000">33</text>
</g>
<!-- N32&#45;&gt;N33 -->
<g id="edge44" class="edge">
<title>N32-&gt;N33</title>
<path fill="none" stroke="#000000" d="M1087.8217,-282.422C1089.5164,-271.6534 1092.5326,-258.5447 1097.8723,-247.7607 1100.7452,-241.9585 1104.6739,-236.2985 1108.8154,-231.1773"/>
<polygon fill="#000000" stroke="#000000" points="1111.4572,-233.4731 1115.3773,-223.6302 1106.1747,-228.8801 1111.4572,-233.4731"/>
<text text-anchor="middle" x="1126.1041" y="-251.9607" font-family="Times,serif" font-size="14.00" fill="#000000">[128,191]</text>
</g>
<!-- N34 -->
<g id="node35" class="node">
<title>N34</title>
<ellipse fill="none" stroke="#000000" cx="1249.6935" cy="-114.8804" rx="20.8887" ry="20.8887"/>
<text text-anchor="middle" x="1249.6935" y="-110.6804" font-family="Times,serif" font-size="14.00" fill="#000000">34</text>
</g>
<!-- N33&#45;&gt;N34 -->
<g id="edge45" class="edge">
<title>N33-&gt;N34</title>
<path fill="none" stroke="#000000" d="M1147.2399,-195.971C1167.4885,-179.9445 1201.9482,-152.6701 1225.2532,-134.2245"/>
<polygon fill="#000000" stroke="#000000" points="1227.6185,-136.816 1233.2875,-127.8654 1223.2742,-131.3272 1227.6185,-136.816"/>
<text text-anchor="middle" x="1225.1041" y="-157.7738" font-family="Times,serif" font-size="14.00" fill="#000000">[128,191]</text>
</g>
<!-- N34&#45;&gt;N42 -->
<g id="edge46" class="edge">
<title>N34-&gt;N42</title>
<path fill="none" stroke="#000000" d="M1267.6519,-125.1881C1273.9166,-128.642 1281.0439,-132.4149 1287.6935,-135.5738 1306.7781,-144.64 1316.0733,-139.346 1331.6935,-153.5738 1352.2668,-172.3132 1360.6935,-181.2388 1360.6935,-209.0673 1360.6935,-499.628 1360.6935,-499.628 1360.6935,-499.628 1360.6935,-564.9107 1288.6903,-542.2283 1224.6935,-555.1214 1130.7166,-574.0545 835.1779,-588.2698 738.5788,-592.5099"/>
<polygon fill="#000000" stroke="#000000" points="738.4136,-589.0136 728.5749,-592.9444 738.7174,-596.007 738.4136,-589.0136"/>
<text text-anchor="middle" x="1364.7738" y="-346.1476" font-family="Times,serif" font-size="14.00" fill="#000000">ε</text>
</g>
<!-- N36 -->
<g id="node37" class="node">
<title>N36</title>
<ellipse fill="none" stroke="#000000" cx="1213.6935" cy="-209.0673" rx="20.8887" ry="20.8887"/>
<text text-anchor="middle" x="1213.6935" y="-204.8673" font-family="Times,serif" font-size="14.00" fill="#000000">36</text>
</g>
<!-- N35&#45;&gt;N36 -->
<g id="edge47" class="edge">
<title>N35-&gt;N36</title>
<path fill="none" stroke="#000000" d="M1160.7785,-283.0537C1164.0796,-272.0932 1169.0505,-258.6083 1175.8723,-247.7607 1179.9291,-241.3097 1185.2129,-235.0616 1190.5385,-229.5356"/>
<polygon fill="#000000" stroke="#000000" points="1193.0269,-231.9975 1197.7155,-222.4965 1188.1254,-227 1193.0269,-231.9975"/>
<text text-anchor="middle" x="1204.1041" y="-251.9607" font-family="Times,serif" font-size="14.00" fill="#000000">[128,159]</text>
</g>
<!-- N37 -->
<g id="node38" class="node">
<title>N37</title>
<ellipse fill="none" stroke="#000000" cx="1317.6935" cy="-114.8804" rx="20.8887" ry="20.8887"/>
<text text-anchor="middle" x="1317.6935" y="-110.6804" font-family="Times,serif" font-size="14.00" fill="#000000">37</text>
</g>
<!-- N36&#45;&gt;N37 -->
<g id="edge48" class="edge">
<title>N36-&gt;N37</title>
<path fill="none" stroke="#000000" d="M1229.039,-195.1697C1246.3977,-179.4489 1274.8442,-153.6865 1294.8224,-135.5934"/>
<polygon fill="#000000" stroke="#000000" points="1297.2223,-138.142 1302.2849,-128.835 1292.5233,-132.9535 1297.2223,-138.142"/>
<text text-anchor="middle" x="1300.1041" y="-157.7738" font-family="Times,serif" font-size="14.00" fill="#000000">[128,191]</text>
</g>
<!-- N37&#45;&gt;N42 -->
<g id="edge49" class="edge">
<title>N37-&gt;N42</title>
<path fill="none" stroke="#000000" d="M1336.0736,-125.347C1359.972,-140.4816 1398.6935,-170.8936 1398.6935,-209.0673 1398.6935,-499.628 1398.6935,-499.628 1398.6935,-499.628 1398.6935,-550.8463 1347.3517,-542.5767 1297.6935,-555.1214 1190.2768,-582.2572 844.5207,-591.1418 738.7368,-593.2608"/>
<polygon fill="#000000" stroke="#000000" points="738.3589,-589.7673 728.4288,-593.4608 738.4948,-596.766 738.3589,-589.7673"/>
<text text-anchor="middle" x="1402.7738" y="-346.1476" font-family="Times,serif" font-size="14.00" fill="#000000">ε</text>
</g>
<!-- N39 -->
<g id="node40" class="node">
<title>N39</title>
<ellipse fill="none" stroke="#000000" cx="1000.6935" cy="-209.0673" rx="20.8887" ry="20.8887"/>
<text text-anchor="middle" x="1000.6935" y="-204.8673" font-family="Times,serif" font-size="14.00" fill="#000000">39</text>
</g>
<!-- N38&#45;&gt;N39 -->
<g id="edge50" class="edge">
<title>N38-&gt;N39</title>
<path fill="none" stroke="#000000" d="M1011.5864,-282.351C1009.7248,-269.8267 1007.3245,-253.6788 1005.2511,-239.7297"/>
<polygon fill="#000000" stroke="#000000" points="1008.676,-238.9646 1003.7437,-229.5879 1001.752,-239.9938 1008.676,-238.9646"/>
<text text-anchor="middle" x="1036.1041" y="-251.9607" font-family="Times,serif" font-size="14.00" fill="#000000">[128,191]</text>
</g>
<!-- N40 -->
<g id="node41" class="node">
<title>N40</title>
<ellipse fill="none" stroke="#000000" cx="879.6935" cy="-114.8804" rx="20.8887" ry="20.8887"/>
<text text-anchor="middle" x="879.6935" y="-110.6804" font-family="Times,serif" font-size="14.00" fill="#000000">40</text>
</g>
<!-- N39&#45;&gt;N40 -->
<g id="edge51" class="edge">
<title>N39-&gt;N40</title>
<path fill="none" stroke="#000000" d="M983.8689,-195.971C963.28,-179.9445 928.2411,-152.6701 904.5445,-134.2245"/>
<polygon fill="#000000" stroke="#000000" points="906.4161,-131.246 896.3751,-127.8654 902.1164,-136.7698 906.4161,-131.246"/>
<text text-anchor="middle" x="975.1041" y="-157.7738" font-family="Times,serif" font-size="14.00" fill="#000000">[128,191]</text>
</g>
<!-- N40&#45;&gt;N42 -->
<g id="edge52" class="edge">
<title>N40-&gt;N42</title>
<path fill="none" stroke="#000000" d="M858.9462,-116.6166C813.1995,-121.695 707.6935,-140.8068 707.6935,-209.0673 707.6935,-499.628 707.6935,-499.628 707.6935,-499.628 707.6935,-520.6785 707.6935,-544.3754 707.6935,-562.734"/>
<polygon fill="#000000" stroke="#000000" points="704.1936,-562.8659 707.6935,-572.8659 711.1936,-562.866 704.1936,-562.8659"/>
<text text-anchor="middle" x="711.7738" y="-346.1476" font-family="Times,serif" font-size="14.00" fill="#000000">ε</text>
</g>
<!-- N41 -->
<g id="node42" class="node">
<title>N41</title>
<ellipse fill="none" stroke="#000000" cx="874.6935" cy="-499.628" rx="20.8887" ry="20.8887"/>
<text text-anchor="middle" x="874.6935" y="-495.428" font-family="Times,serif" font-size="14.00" fill="#000000">41</text>
</g>
<!-- N41&#45;&gt;N24 -->
<g id="edge53" class="edge">
<title>N41-&gt;N24</title>
<path fill="none" stroke="#000000" d="M874.6935,-478.8051C874.6935,-465.3968 874.6935,-447.7208 874.6935,-432.6495"/>
<polygon fill="#000000" stroke="#000000" points="878.1935,-432.2339 874.6935,-422.234 871.1935,-432.234 878.1935,-432.2339"/>
<text text-anchor="middle" x="878.7738" y="-448.3345" font-family="Times,serif" font-size="14.00" fill="#000000">ε</text>
</g>
<!-- N41&#45;&gt;N25 -->
<g id="edge54" class="edge">
<title>N41-&gt;N25</title>
<path fill="none" stroke="#000000" d="M892.4276,-488.7451C920.5398,-471.4935 975.4981,-437.7674 1008.2666,-417.6584"/>
<polygon fill="#000000" stroke="#000000" points="1010.1874,-420.5862 1016.8799,-412.3727 1006.5261,-414.62 1010.1874,-420.5862"/>
<text text-anchor="middle" x="968.7738" y="-448.3345" font-family="Times,serif" font-size="14.00" fill="#000000">ε</text>
</g>
<!-- N42&#45;&gt;N2 -->
<g id="edge57" class="edge">
<title>N42-&gt;N2</title>
<path fill="none" stroke="#000000" d="M687.1686,-590.8886C646.9727,-584.8953 559.5298,-570.4884 533.5329,-555.1214 520.2387,-547.2632 508.6518,-534.532 500.1043,-523.2449"/>
<polygon fill="#000000" stroke="#000000" points="502.8588,-521.0802 494.1825,-514.9997 497.1733,-525.1637 502.8588,-521.0802"/>
<text text-anchor="middle" x="537.7738" y="-542.5214" font-family="Times,serif" font-size="14.00" fill="#000000">ε</text>
</g>
<!-- N42&#45;&gt;N41 -->
<g id="edge56" class="edge">
<title>N42-&gt;N41</title>
<path fill="none" stroke="#000000" d="M728.2399,-591.2683C754.2863,-587.2226 799.6491,-577.376 831.6935,-555.1214 842.5645,-547.5716 851.9501,-536.4414 859.1544,-526.1269"/>
<polygon fill="#000000" stroke="#000000" points="862.0944,-528.0262 864.6776,-517.7511 856.2506,-524.1726 862.0944,-528.0262"/>
<text text-anchor="middle" x="852.7738" y="-542.5214" font-family="Times,serif" font-size="14.00" fill="#000000">ε</text>
</g>
<!-- N43 -->
<g id="node44" class="node">
<title>N43</title>
<ellipse fill="none" stroke="#000000" cx="1449.6935" cy="-499.628" rx="20.8887" ry="20.8887"/>
<text text-anchor="middle" x="1449.6935" y="-495.428" font-family="Times,serif" font-size="14.00" fill="#000000">43</text>
</g>
<!-- N42&#45;&gt;N43 -->
<g id="edge55" class="edge">
<title>N42-&gt;N43</title>
<path fill="none" stroke="#000000" d="M728.5489,-593.195C842.1346,-589.7532 1382.2218,-572.5192 1412.6935,-555.1214 1423.4264,-548.9934 1431.6414,-538.3288 1437.5722,-527.9758"/>
<polygon fill="#000000" stroke="#000000" points="1440.6901,-529.5661 1442.2021,-519.0797 1434.4807,-526.3344 1440.6901,-529.5661"/>
<text text-anchor="middle" x="1434.7738" y="-542.5214" font-family="Times,serif" font-size="14.00" fill="#000000">ε</text>
</g>
<!-- N44 -->
<g id="node45" class="node">
<title>N44</title>
<ellipse fill="none" stroke="#000000" cx="1451.6935" cy="-401.4411" rx="20.8568" ry="20.8568"/>
<ellipse fill="none" stroke="#000000" cx="1451.6935" cy="-401.4411" rx="24.8884" ry="24.8884"/>
<text text-anchor="middle" x="1451.6935" y="-397.2411" font-family="Times,serif" font-size="14.00" fill="#000000">44</text>
</g>
<!-- N43&#45;&gt;N44 -->
<g id="edge58" class="edge">
<title>N43-&gt;N44</title>
<path fill="none" stroke="#000000" d="M1450.1176,-478.8051C1450.3661,-466.6036 1450.6867,-450.868 1450.9737,-436.7772"/>
<polygon fill="#000000" stroke="#000000" points="1454.4804,-436.4775 1451.1849,-426.4082 1447.4819,-436.3349 1454.4804,-436.4775"/>
<text text-anchor="middle" x="1457.6935" y="-448.3345" font-family="Times,serif" font-size="14.00" fill="#000000">34</text>
</g>
</g>
</svg>